<svg xmlns="http://www.w3.org/2000/svg" width="430" height="430" style="width:100%;height:100%;transform:translate3d(0,0,0);content-visibility:visible" viewBox="0 0 430 430"><defs><clipPath id="b"><path d="M0 0h430v430H0z"/></clipPath><clipPath id="j"><path d="M0 0h430v430H0z"/></clipPath><clipPath id="i"><path d="M0 0h430v430H0z"/></clipPath><clipPath id="h"><path d="M0 0h430v430H0z"/></clipPath><clipPath id="g"><path d="M0 0h430v430H0z"/></clipPath><clipPath id="e"><path d="M0 0h430v430H0z"/></clipPath><clipPath id="d"><path d="M0 0h430v430H0z"/></clipPath><clipPath id="c"><path d="M0 0h430v430H0z"/></clipPath><path id="a" style="display:none"/><mask id="f" mask-type="alpha"><use xmlns:ns1="http://www.w3.org/1999/xlink" ns1:href="#a"/></mask></defs><g clip-path="url(#b)"><g clip-path="url(#c)" style="display:none"><path class="tertiary" style="display:none"/><path class="tertiary" style="mix-blend-mode:multiply;display:none"/><path fill="none" class="primary" style="display:none"/><path fill="none" class="primary" style="display:none"/><path fill="none" class="primary" style="display:none"/><path fill="none" class="primary" style="display:none"/><path fill="none" class="primary" style="display:none"/></g><g clip-path="url(#d)" style="display:none"><path class="tertiary" style="display:none"/><path class="tertiary" style="mix-blend-mode:multiply;display:none"/><path fill="none" class="primary" style="display:none"/><path fill="none" class="primary" style="display:none"/><path fill="none" class="primary" style="display:none"/></g><g clip-path="url(#e)" style="display:none"><path class="tertiary" style="display:none"/><path class="tertiary" style="mix-blend-mode:multiply;display:none"/><path fill="none" class="primary" style="display:none"/><path fill="none" class="primary" style="display:none"/><path fill="none" class="primary" style="display:none"/><path fill="none" class="primary" style="display:none"/><path class="secondary" style="display:none"/><g mask="url(#f)" style="mix-blend-mode:multiply;display:none"><path class="secondary"/></g><path fill="none" class="primary" style="display:none"/></g><g clip-path="url(#g)" style="display:none"><path class="tertiary" style="display:none"/><path class="tertiary" style="mix-blend-mode:multiply;display:none"/><path fill="none" class="primary" style="display:none"/><path fill="none" class="primary" style="display:none"/><path fill="none" class="primary" style="display:none"/></g><g clip-path="url(#h)" style="display:none"><path class="tertiary" style="display:none"/><path class="tertiary" style="mix-blend-mode:multiply;display:none"/><path fill="none" class="primary" style="display:none"/><path fill="none" class="primary" style="display:none"/><path fill="none" class="primary" style="display:none"/><path fill="none" class="primary" style="display:none"/></g><g clip-path="url(#i)" style="display:block"><path fill="#EBE6EE" d="M0 167.5c92.508 0 167.5-74.992 167.5-167.5S92.508-167.5 0-167.5-167.5-92.508-167.5 0-92.508 167.5 0 167.5" class="tertiary" style="display:block" transform="translate(215 215)"/><g opacity=".5" style="mix-blend-mode:multiply;display:block"><path fill="#EBE6EE" d="M250 362.5c23.01 0 44.936-4.639 64.894-13.034C287.004 370.219 252.436 382.5 215 382.5c-92.508 0-167.5-74.992-167.5-167.5 0-69.498 42.326-129.111 102.607-154.466C109.078 91.064 82.5 139.928 82.5 195c0 92.508 74.992 167.5 167.5 167.5" class="tertiary" opacity="1"/></g><path fill="none" stroke="#121330" stroke-linecap="round" stroke-linejoin="round" stroke-width="7" d="M0 167.5c92.508 0 167.5-74.992 167.5-167.5S92.508-167.5 0-167.5-167.5-92.508-167.5 0-92.508 167.5 0 167.5M0 0" class="primary" style="display:block" transform="translate(215 215)"/><path fill="none" stroke="#121330" stroke-linecap="round" stroke-linejoin="round" stroke-width="7" d="M0-30v60M-30 0v-30c0-16.569 13.431-30 30-30s30 13.431 30 30m0 30v30c0 16.569-13.431 30-30 30s-30-13.431-30-30M20-86.586A59.9 59.9 0 0 0 0-90c-33.137 0-60 26.863-60 60v60c0 17.77 7.725 33.736 20 44.722m20 11.864A59.9 59.9 0 0 0 0 90c33.137 0 60-26.863 60-60v-60c0-17.77-7.725-33.736-20-44.722M-70-86.573C-82.508-71.116-90-51.433-90-30v60c0 49.706 40.294 90 90 90 18.501 0 35.699-5.582 50-15.155m20-18.272C82.508 71.116 90 51.433 90 30v-60c0-49.706-40.294-90-90-90-18.501 0-35.699 5.582-50 15.155" class="primary" style="display:block" transform="translate(215 215)"/></g><g clip-path="url(#j)" style="display:none"><path class="tertiary" style="display:none"/><path class="tertiary" style="mix-blend-mode:multiply;display:none"/><path fill="none" class="primary" style="display:none"/><path fill="none" class="primary" style="display:none"/></g></g></svg>