<svg width="18" height="18" viewBox="0 0 18 18" fill="none" xmlns="http://www.w3.org/2000/svg">
<g filter="url(#filter0_ii_14_7871)">
<path fill-rule="evenodd" clip-rule="evenodd" d="M8.4863 1.7679C4.7219 2.0314 1.75 5.1687 1.75 9C1.75 13.0041 4.9959 16.25 9 16.25C12.2079 16.25 14.9297 14.1662 15.8848 11.2787C15.1497 11.5824 14.3441 11.75 13.5 11.75C10.0482 11.75 7.25 8.9518 7.25 5.5C7.25 4.1009 7.7101 2.8091 8.4863 1.7679ZM0.25 9C0.25 4.1675 4.1675 0.25 9 0.25C9.4496 0.25 9.8918 0.284 10.3239 0.3496C10.6229 0.395 10.8654 0.615499 10.9388 0.908899C11.0123 1.2022 10.9025 1.511 10.6602 1.6919C9.4992 2.5593 8.75 3.9421 8.75 5.5C8.75 8.1234 10.8766 10.25 13.5 10.25C14.6342 10.25 15.6738 9.8534 16.4905 9.1906C16.7252 9.0002 17.0513 8.9692 17.3176 9.1121C17.584 9.255 17.7386 9.5437 17.7097 9.8446C17.2843 14.2812 13.5477 17.75 9 17.75C4.1675 17.75 0.25 13.8325 0.25 9Z" fill="black"/>
</g>
<defs>
<filter id="filter0_ii_14_7871" x="-0.75" y="0.25" width="19.4632" height="18.5" filterUnits="userSpaceOnUse" color-interpolation-filters="sRGB">
<feFlood flood-opacity="0" result="BackgroundImageFix"/>
<feBlend mode="normal" in="SourceGraphic" in2="BackgroundImageFix" result="shape"/>
<feColorMatrix in="SourceAlpha" type="matrix" values="0 0 0 0 0 0 0 0 0 0 0 0 0 0 0 0 0 0 127 0" result="hardAlpha"/>
<feOffset dx="-1" dy="1"/>
<feGaussianBlur stdDeviation="1"/>
<feComposite in2="hardAlpha" operator="arithmetic" k2="-1" k3="1"/>
<feColorMatrix type="matrix" values="0 0 0 0 0.156863 0 0 0 0 0.0980392 0 0 0 0 0.0627451 0 0 0 0.3 0"/>
<feBlend mode="normal" in2="shape" result="effect1_innerShadow_14_7871"/>
<feColorMatrix in="SourceAlpha" type="matrix" values="0 0 0 0 0 0 0 0 0 0 0 0 0 0 0 0 0 0 127 0" result="hardAlpha"/>
<feOffset dx="1" dy="1"/>
<feGaussianBlur stdDeviation="0.5"/>
<feComposite in2="hardAlpha" operator="arithmetic" k2="-1" k3="1"/>
<feColorMatrix type="matrix" values="0 0 0 0 0.7 0 0 0 0 0.7 0 0 0 0 0.7 0 0 0 0.25 0"/>
<feBlend mode="normal" in2="effect1_innerShadow_14_7871" result="effect2_innerShadow_14_7871"/>
</filter>
</defs>
</svg>
