<svg width="21" height="20" viewBox="0 0 21 20" fill="none" xmlns="http://www.w3.org/2000/svg">
<g filter="url(#filter0_ii_14_9382)">
<path d="M18.0283 12.0938C17.9461 12.1664 17.8964 12.2691 17.8911 12.3787C17.8425 13.3913 17.7593 14.4027 17.6414 15.411C17.4872 16.7286 16.4218 17.7783 15.0916 17.9269C11.7358 18.302 8.2642 18.302 4.9084 17.9269C3.5783 17.7783 2.5128 16.7286 2.3587 15.411C1.9577 11.9824 1.9577 8.51895 2.3587 5.09035C2.5128 3.77275 3.5783 2.72305 4.9084 2.57445C7.1209 2.32715 9.3864 2.24305 11.6335 2.32185C11.7957 2.32755 11.9338 2.20405 11.9452 2.04205L11.9943 1.33905C11.9973 1.29765 12.0014 1.25675 12.0065 1.21625C12.0309 1.02185 11.8961 0.830147 11.7003 0.823247C9.3747 0.740847 7.0327 0.827647 4.7418 1.08375C2.7297 1.30855 1.1054 2.89365 0.868797 4.91615C0.454297 8.46045 0.454297 12.0409 0.868797 15.5852C1.1054 17.6077 2.7297 19.1928 4.7418 19.4176C8.2083 19.8051 11.7917 19.8051 15.2583 19.4176C17.2703 19.1928 18.8946 17.6077 19.1312 15.5852C19.3002 14.1404 19.4003 12.6896 19.4315 11.2376C19.4354 11.0554 19.2119 10.9646 19.0839 11.0944C18.7438 11.4397 18.3917 11.773 18.0283 12.0938Z" fill="black"/>
<path d="M5.86721 13.5504C5.64601 13.4895 5.49461 13.2858 5.50021 13.0564L5.55941 10.5925C5.64421 7.06462 8.52851 4.24872 12.0575 4.24882H13.3149C13.3412 3.62502 13.3771 3.00162 13.4225 2.37872L13.4903 1.44812C13.5317 0.880123 14.165 0.562623 14.6448 0.869223C16.7158 2.19252 18.5162 3.89762 19.95 5.89362L20.4061 6.52862C20.5313 6.70292 20.5313 6.93772 20.4061 7.11202L19.95 7.74692C18.5162 9.74292 16.7158 11.448 14.6448 12.7713C14.2497 13.0238 13.749 12.8531 13.562 12.4678C13.5228 12.3859 13.4975 12.2915 13.4903 12.1925L13.4225 11.2619C13.3683 10.519 13.3278 9.77542 13.3008 9.03142L12.9467 8.97812C10.6905 8.63852 8.45881 9.72732 7.33781 11.7145L6.43551 13.3141C6.39251 13.3902 6.33151 13.4518 6.26071 13.4951C6.14571 13.5653 6.00401 13.5881 5.86721 13.5504Z" fill="black"/>
</g>
<defs>
<filter id="filter0_ii_14_9382" x="-0.442078" y="0.75" width="21.9421" height="19.9583" filterUnits="userSpaceOnUse" color-interpolation-filters="sRGB">
<feFlood flood-opacity="0" result="BackgroundImageFix"/>
<feBlend mode="normal" in="SourceGraphic" in2="BackgroundImageFix" result="shape"/>
<feColorMatrix in="SourceAlpha" type="matrix" values="0 0 0 0 0 0 0 0 0 0 0 0 0 0 0 0 0 0 127 0" result="hardAlpha"/>
<feOffset dx="-1" dy="1"/>
<feGaussianBlur stdDeviation="1"/>
<feComposite in2="hardAlpha" operator="arithmetic" k2="-1" k3="1"/>
<feColorMatrix type="matrix" values="0 0 0 0 0.156863 0 0 0 0 0.0980392 0 0 0 0 0.0627451 0 0 0 0.3 0"/>
<feBlend mode="normal" in2="shape" result="effect1_innerShadow_14_9382"/>
<feColorMatrix in="SourceAlpha" type="matrix" values="0 0 0 0 0 0 0 0 0 0 0 0 0 0 0 0 0 0 127 0" result="hardAlpha"/>
<feOffset dx="1" dy="1"/>
<feGaussianBlur stdDeviation="0.5"/>
<feComposite in2="hardAlpha" operator="arithmetic" k2="-1" k3="1"/>
<feColorMatrix type="matrix" values="0 0 0 0 0.7 0 0 0 0 0.7 0 0 0 0 0.7 0 0 0 0.25 0"/>
<feBlend mode="normal" in2="effect1_innerShadow_14_9382" result="effect2_innerShadow_14_9382"/>
</filter>
</defs>
</svg>
